<?xml version="1.0" encoding="UTF-8"?>
<svg id="Layer_1" data-name="Layer 1" xmlns="http://www.w3.org/2000/svg" viewBox="0 0 160.51 40">
  <defs>
    <style>
      .cls-1 {
        fill: #171717;
      }

      .cls-2 {
        fill: #82f213;
      }

      .cls-3 {
        fill: #d1d3d4;
        font-family: RedHatDisplay-Medium, 'Red Hat Display';
        font-size: 5px;
        font-weight: 500;
      }
    </style>
  </defs>
  <g>
    <path class="cls-1" d="M38.28,40c-2.8,0-5.29-.57-7.45-1.71s-3.86-2.74-5.08-4.81c-1.22-2.06-1.83-4.44-1.83-7.12V8.64h5.65v17.66c0,1.8.41,3.36,1.23,4.69.82,1.32,1.88,2.34,3.18,3.06,1.3.72,2.71,1.08,4.24,1.08s3-.36,4.33-1.08c1.32-.72,2.38-1.74,3.18-3.06.8-1.32,1.2-2.88,1.2-4.69V8.64h5.71v17.72c0,2.68-.61,5.06-1.83,7.12-1.22,2.06-2.91,3.66-5.08,4.81-2.16,1.14-4.65,1.71-7.45,1.71Z"/>
    <path class="cls-1" d="M56.49,39.28v-18.39c0-2.4.54-4.59,1.62-6.55,1.08-1.96,2.64-3.52,4.69-4.69,2.04-1.16,4.51-1.74,7.39-1.74,1.4,0,2.8.19,4.21.57,1.4.38,2.7,1.01,3.91,1.89,1.2.88,2.16,2.06,2.88,3.54h.06c.8-1.48,1.8-2.66,3-3.54,1.2-.88,2.5-1.51,3.91-1.89,1.4-.38,2.8-.57,4.21-.57,2.88,0,5.35.58,7.39,1.74,2.04,1.16,3.61,2.72,4.69,4.69,1.08,1.96,1.62,4.15,1.62,6.55v18.39h-5.65v-18.39c0-1.56-.36-2.94-1.08-4.15s-1.68-2.16-2.88-2.88-2.56-1.08-4.09-1.08-2.91.36-4.18,1.08c-1.26.72-2.26,1.69-3,2.91-.74,1.22-1.11,2.59-1.11,4.12v18.39h-5.65v-18.39c0-1.52-.37-2.89-1.11-4.12-.74-1.22-1.73-2.19-2.97-2.91-1.24-.72-2.62-1.08-4.15-1.08s-2.89.36-4.12,1.08c-1.22.72-2.18,1.68-2.88,2.88-.7,1.2-1.05,2.58-1.05,4.15v18.39h-5.65Z"/>
    <path class="cls-1" d="M158.1,15.79c-1.38-2.42-3.28-4.35-5.71-5.77-2.42-1.42-5.2-2.13-8.32-2.13h-7.53c-3.12,0-5.9.71-8.32,2.13-2.42,1.42-4.33,3.34-5.71,5.77-1.38,2.42-2.07,5.14-2.07,8.14s.69,5.72,2.07,8.14c1.38,2.42,3.28,4.35,5.71,5.77,2.42,1.42,5.2,2.13,8.32,2.13h7.53c3.12,0,5.9-.71,8.32-2.13,2.42-1.42,4.33-3.34,5.71-5.77,1.38-2.42,2.07-5.14,2.07-8.14s-.69-5.72-2.07-8.14ZM153.18,29.64c-.86,1.68-2.07,3.01-3.64,4-1.56.98-3.38,1.47-5.47,1.47h-7.53c-2.08,0-3.91-.49-5.47-1.47-1.56-.98-2.77-2.32-3.64-4.03-.86-1.7-1.29-3.59-1.29-5.68s.43-4.03,1.29-5.71c.86-1.68,2.07-3.01,3.64-4,1.56-.98,3.38-1.47,5.47-1.47h7.53c2.08,0,3.91.49,5.47,1.47,1.56.98,2.77,2.32,3.64,4.03.86,1.7,1.29,3.59,1.29,5.68s-.43,4.03-1.29,5.71Z"/>
    <path class="cls-1" d="M11.23,33.67c-2,0-3.07-.3-4.05-1.32s-1.29-2.07-1.29-3.64V0H0v27.98c0,2.13.46,4.05,1.38,5.77.92,1.72,2.22,3.07,3.9,4.05,1.68.98,3.64,1.47,5.89,1.47h5.46v-.14l5.47-5.47h-10.87Z"/>
    <polygon class="cls-1" points="116.59 39.28 116.59 6.53 115.76 6.53 115.76 6.53 115.76 6.53 110.88 11.4 110.88 39.28 116.59 39.28"/>
    <rect class="cls-2" x="109.58" width="7.01" height="6.53"/>
  </g>
  <text class="cls-3" transform="translate(153.12 4.69)"><tspan x="0" y="0">TM</tspan></text>
</svg>